<svg width="32" height="32" viewBox="0 0 32 32" fill="none" xmlns="http://www.w3.org/2000/svg">
<g clip-path="url(#clip0_68_510)">
<path d="M16.6663 1C8.19434 1 1.33301 7.86133 1.33301 16.3333C1.33301 23.1187 5.72234 28.8493 11.817 30.88C12.5837 31.0147 12.8703 30.5547 12.8703 30.152C12.8703 29.788 12.8517 28.5813 12.8517 27.296C8.99967 28.0053 8.00367 26.3573 7.69701 25.496C7.52367 25.0547 6.77701 23.6933 6.12367 23.3293C5.58767 23.0413 4.82101 22.332 6.10501 22.3133C7.31301 22.2947 8.17567 23.4253 8.46367 23.8853C9.84367 26.2053 12.0477 25.552 12.929 25.1493C13.0623 24.1533 13.465 23.4827 13.9063 23.0987C10.4943 22.716 6.93034 21.3933 6.93034 15.528C6.93034 13.8613 7.52367 12.4813 8.50101 11.408C8.34767 11.024 7.81167 9.452 8.65434 7.344C8.65434 7.344 9.93834 6.94133 12.8717 8.916C14.0983 8.57067 15.401 8.39867 16.705 8.39867C18.0077 8.39867 19.3117 8.572 20.5383 8.916C23.4717 6.92267 24.7543 7.344 24.7543 7.344C25.5983 9.452 25.061 11.024 24.9077 11.408C25.885 12.4813 26.4797 13.8413 26.4797 15.528C26.4797 21.412 22.8957 22.7147 19.4837 23.0987C20.0397 23.5787 20.5183 24.4987 20.5183 25.936C20.5183 27.9867 20.4997 29.6347 20.4997 30.152C20.4997 30.5547 20.7877 31.0347 21.553 30.8813C27.6117 28.8493 31.9997 23.0987 31.9997 16.3333C31.9997 7.86133 25.1383 1 16.6663 1Z" fill="#4D46B0"/>
</g>
<defs>
<clipPath id="clip0_68_510">
<rect width="32" height="32" fill="white"/>
</clipPath>
</defs>
</svg>
