<svg width="426" height="447" viewBox="0 0 426 447" fill="none" xmlns="http://www.w3.org/2000/svg">
<path d="M238.301 0.411689C255.642 0.49155 272.943 1.30347 290.245 2.31504C308.052 3.77916 327.138 4.7375 344.213 10.1814C368.826 17.9013 391.322 33.3677 406.346 54.451C417.547 70.0239 424.353 88.6448 425.112 107.851C427.057 143.656 425.325 179.873 424.473 215.69C424.393 225.048 424.553 234.311 423.168 243.602C420.371 265.803 412.393 287.166 397.062 303.791C382.838 319.377 364.138 329.093 343.986 334.71C315.058 342.19 284.078 344.32 254.31 345.611C239.113 345.877 224.223 347.102 208.999 345.997C192.976 345.744 176.887 344.4 161.064 341.831C150.436 340.593 140.273 337.758 129.725 336.001C130.577 345.372 132.389 354.556 135.678 363.38C140.247 375.799 151.222 385.462 163.222 390.56C178.392 397.055 194.015 398.16 210.331 397.694C238.62 397.707 266.55 393.741 294.134 387.605C294.786 399.371 293.641 411.217 294.001 423.036C280.961 431.502 264.619 435.867 249.715 439.994C204.924 450.855 157.029 449.031 113.143 434.922C100.503 431.169 89.1954 425.139 77.8077 418.631C55.4186 404.841 34.8275 385.196 23.3466 361.277C17.2066 348.939 14.7825 334.444 11.919 320.867C3.71451 279.939 2.649 239.915 1.21055 198.374C0.531289 175.826 -0.734011 152.986 0.557925 130.505C1.79659 112.923 3.62128 94.9539 10.5072 78.5424C22.401 49.9522 46.2685 28.2566 74.3581 15.918C94.0035 7.08008 115.767 4.24502 137.037 2.23518C170.774 -0.227201 204.497 -0.346991 238.301 0.411689Z" fill="url(#paint0_linear_67_503)"/>
<path d="M172.854 90.7738C180.55 96.066 183.533 104.776 183.461 113.846C183.49 139.326 183.432 164.821 183.446 190.316C183.374 198.42 185.565 206.25 191.344 212.163C203.68 225.199 227.472 223.987 238.151 209.452C242.777 203.338 243.685 196.286 243.728 188.831C243.714 163.826 243.714 138.836 243.714 113.832C243.7 107.415 244.838 101.243 248.686 95.965C252.562 90.5863 258.586 87.4571 265.071 86.491C274.554 85.0778 285.204 86.8371 291.891 94.2779C297.266 100.132 298.52 107.602 298.592 115.288C298.549 152.29 298.549 189.321 298.534 226.323C298.52 232.971 298.894 240.369 297.093 246.8C295.565 252.251 292.15 257.053 287.279 259.994C280.679 264.061 271.758 264.393 264.351 262.922C253.715 260.24 246.711 251.241 245.054 240.585C242.201 244.954 239.405 249.381 235.442 252.856C225.383 261.797 212.153 266.325 198.809 266.93C185.911 267.421 173.056 265.301 161.512 259.317C150.099 253.419 140.876 243.627 135.486 231.962C130.427 221.132 128.568 209.365 128.612 197.483C128.64 169.133 128.525 140.74 128.655 112.39C128.785 103.031 132.632 93.8885 141.221 89.375C150.632 84.5154 163.977 84.8327 172.854 90.7738Z" fill="white"/>
<defs>
<linearGradient id="paint0_linear_67_503" x1="130.592" y1="20.0798" x2="258.592" y2="417.58" gradientUnits="userSpaceOnUse">
<stop stop-color="#696AFF"/>
<stop offset="1" stop-color="#4B21C1"/>
</linearGradient>
</defs>
</svg>
